<?xml version="1.0" standalone="no"?>
<!DOCTYPE svg PUBLIC "-//W3C//DTD SVG 20010904//EN"
 "http://www.w3.org/TR/2001/REC-SVG-20010904/DTD/svg10.dtd">
<svg version="1.0" xmlns="http://www.w3.org/2000/svg"
 width="700.000000pt" height="700.000000pt" viewBox="0 0 700.000000 700.000000"
 preserveAspectRatio="xMidYMid meet">
<metadata>
Created by potrace 1.11, written by Peter Selinger 2001-2013
</metadata>
<g transform="translate(0.000000,700.000000) scale(0.100000,-0.100000)"
fill="#000000" stroke="none">
<path d="M3324 6870 c-54 -17 -128 -73 -161 -123 -37 -55 -57 -141 -48 -200
18 -109 -47 -40 1678 -1764 1809 -1808 1659 -1669 1798 -1667 113 0 204 59
261 167 33 62 33 193 -1 258 -32 64 -3258 3288 -3316 3315 -45 21 -163 28
-211 14z"/>
<path d="M2681 6238 c-109 -42 -191 -161 -191 -278 0 -27 9 -75 21 -107 20
-56 83 -120 1653 -1689 1569 -1570 1633 -1633 1689 -1653 114 -42 233 -16 317
69 85 84 111 203 69 317 -20 56 -83 120 -1653 1689 -1569 1570 -1633 1633
-1689 1653 -73 26 -146 26 -216 -1z"/>
<path d="M2083 5626 c-167 -55 -252 -223 -197 -392 15 -45 144 -176 1647
-1680 1203 -1205 1642 -1638 1676 -1655 70 -36 174 -38 243 -7 119 55 183 150
183 273 0 145 131 3 -1668 1802 -1453 1453 -1618 1615 -1670 1639 -69 31 -155
39 -214 20z"/>
<path d="M1483 5010 c-184 -37 -287 -243 -208 -418 23 -51 197 -229 1643
-1674 1791 -1792 1660 -1670 1794 -1669 102 1 167 28 227 97 41 47 60 84 71
146 13 65 -2 146 -35 203 -30 50 -3249 3268 -3290 3288 -30 15 -126 38 -148
36 -7 -1 -31 -5 -54 -9z"/>
<path d="M871 4388 c-139 -21 -244 -143 -245 -288 -2 -137 -139 11 1663 -1793
1352 -1353 1635 -1632 1680 -1654 76 -38 177 -37 255 1 146 71 208 246 141
394 -23 51 -197 228 -1643 1674 -1152 1151 -1630 1622 -1661 1638 -56 28 -123
38 -190 28z"/>
<path d="M175 3742 c-111 -53 -169 -147 -170 -272 0 -59 5 -85 24 -125 37 -75
3243 -3281 3316 -3316 67 -32 179 -33 246 -2 69 31 123 85 154 154 23 52 27
71 23 133 -2 49 -11 86 -27 117 -17 34 -450 473 -1655 1676 -1504 1503 -1635
1632 -1680 1647 -78 25 -160 21 -231 -12z"/>
</g>
</svg>
