<?xml version="1.0" encoding="UTF-8"?>
<svg width="225px" height="32px" viewBox="0 0 225 32" version="1.1" xmlns="http://www.w3.org/2000/svg" xmlns:xlink="http://www.w3.org/1999/xlink">
    <!-- Generator: Sketch 43.2 (39069) - http://www.bohemiancoding.com/sketch -->
    <title>Group</title>
    <desc>Created with Sketch.</desc>
    <defs></defs>
    <g id="Page-1" stroke="none" stroke-width="1" fill="none" fill-rule="evenodd">
        <g id="Group" fill="#FFFFFF">
            <path d="M39.094,23.321 L42.502,21.36 C43.041,22.316 43.605,22.831 44.929,22.831 C46.646,22.831 47.16,21.851 47.16,20.796 L47.16,9.15 L51.083,9.15 L51.083,20.796 C51.083,24.572 48.435,26.656 44.905,26.656 C42.183,26.656 40.222,25.504 39.094,23.321" id="Fill-1"></path>
            <path d="M64.27,14.054 L64.27,26.313 L60.592,26.313 L60.592,25.16 C59.931,26.067 58.705,26.656 57.086,26.656 C54.61,26.656 52.501,24.891 52.501,21.581 L52.501,14.054 L56.18,14.054 L56.18,21.042 C56.18,22.562 57.136,23.273 58.313,23.273 C59.661,23.273 60.592,22.488 60.592,20.748 L60.592,14.054 L64.27,14.054" id="Fill-2"></path>
            <path d="M75.338,22.635 C75.338,25.455 73.091,26.656 70.239,26.656 C67.787,26.656 65.924,25.725 64.967,23.738 L68.155,21.924 C68.473,22.857 69.16,23.371 70.239,23.371 C71.122,23.371 71.562,23.101 71.562,22.61 C71.562,21.262 65.531,21.973 65.531,17.732 C65.531,15.06 67.788,13.648 70.337,13.711 C72.28,13.758 73.779,14.515 74.697,16.028 L71.98,18.026 C71.636,17.389 71.146,16.947 70.337,16.947 C69.699,16.947 69.307,17.192 69.307,17.633 C69.307,19.031 75.338,18.1 75.338,22.635" id="Fill-3"></path>
            <path d="M80.86,17.585 L80.86,21.924 C80.86,22.979 81.767,23.076 83.386,22.979 L83.386,26.314 C78.58,26.803 77.183,25.357 77.183,21.924 L77.183,17.585 L75.436,17.585 L75.436,14.054 L77.183,14.054 L77.183,11.725 L80.86,10.622 L80.86,14.054 L83.386,14.054 L83.386,17.585 L80.86,17.585" id="Fill-5"></path>
            <path d="M106.616,18.221 C106.616,23.467 103.042,26.654 98.339,26.654 C93.061,26.654 89.271,22.683 89.271,17.755 C89.271,12.777 93.134,8.806 98.076,8.806 C101.29,8.806 104,10.424 105.417,12.729 L102.154,14.641 C101.458,13.513 99.947,12.63 98.052,12.63 C95.221,12.63 93.11,14.763 93.11,17.779 C93.11,20.696 95.125,22.83 98.387,22.83 C100.619,22.83 102.082,21.825 102.682,20.182 L98.196,20.182 L98.196,16.75 L106.616,16.75 L106.616,18.221" id="Fill-7"></path>
            <path d="M107.043,20.182 C107.043,16.529 109.936,13.709 113.541,13.709 C117.145,13.709 120.038,16.529 120.038,20.182 C120.038,23.835 117.145,26.655 113.541,26.655 C109.936,26.655 107.043,23.835 107.043,20.182 M116.36,20.182 C116.36,18.441 115.134,17.289 113.541,17.289 C111.947,17.289 110.721,18.441 110.721,20.182 C110.721,21.923 111.947,23.075 113.541,23.075 C115.134,23.075 116.36,21.923 116.36,20.182" id="Fill-8"></path>
            <path d="M120.471,20.182 C120.471,16.529 123.364,13.709 126.968,13.709 C130.572,13.709 133.465,16.529 133.465,20.182 C133.465,23.835 130.572,26.655 126.968,26.655 C123.364,26.655 120.471,23.835 120.471,20.182 M129.788,20.182 C129.788,18.441 128.561,17.289 126.968,17.289 C125.374,17.289 124.148,18.441 124.148,20.182 C124.148,21.923 125.374,23.075 126.968,23.075 C128.561,23.075 129.788,21.923 129.788,20.182" id="Fill-9"></path>
            <path d="M147.05,9.149 L147.05,26.312 L143.373,26.312 L143.373,25.159 C142.564,26.091 141.362,26.654 139.719,26.654 C136.507,26.654 133.86,23.835 133.86,20.182 C133.86,16.529 136.507,13.709 139.719,13.709 C141.362,13.709 142.564,14.273 143.373,15.205 L143.373,9.149 L147.05,9.149 Z M143.373,20.182 C143.373,18.343 142.147,17.191 140.455,17.191 C138.763,17.191 137.538,18.343 137.538,20.182 C137.538,22.021 138.763,23.173 140.455,23.173 C142.147,23.173 143.373,22.021 143.373,20.182 L143.373,20.182 Z" id="Fill-10"></path>
            <path d="M157.562,9.149 L151.726,26.312 L156.017,26.312 L156.875,23.614 L163.25,23.614 L164.108,26.312 L168.398,26.312 L162.563,9.149 L157.562,9.149 Z M160.062,13.636 L162.073,19.937 L158.052,19.937 L160.062,13.636 L160.062,13.636 Z" id="Fill-11"></path>
            <path d="M180.805,9.149 L180.805,26.312 L177.128,26.312 L177.128,25.159 C176.319,26.091 175.118,26.654 173.474,26.654 C170.262,26.654 167.615,23.835 167.615,20.182 C167.615,16.529 170.262,13.709 173.474,13.709 C175.118,13.709 176.319,14.273 177.128,15.205 L177.128,9.149 L180.805,9.149 Z M177.128,20.182 C177.128,18.343 175.902,17.191 174.21,17.191 C172.518,17.191 171.292,18.343 171.292,20.182 C171.292,22.021 172.518,23.173 174.21,23.173 C175.902,23.173 177.128,22.021 177.128,20.182 L177.128,20.182 Z" id="Fill-12"></path>
            <polyline id="Fill-13" points="190.46 14.053 187.911 21.825 185.361 14.053 181.292 14.053 185.827 26.312 189.995 26.312 194.531 14.053 190.46 14.053"></polyline>
            <path d="M194.707,10.767 C194.707,9.566 195.711,8.561 196.914,8.561 C198.115,8.561 199.12,9.566 199.12,10.767 C199.12,11.968 198.115,12.974 196.914,12.974 C195.711,12.974 194.707,11.968 194.707,10.767 L194.707,10.767 Z M195.075,26.312 L198.752,26.312 L198.752,14.053 L195.075,14.053 L195.075,26.312 Z" id="Fill-14"></path>
            <path d="M199.464,20.182 C199.464,16.529 202.235,13.709 205.961,13.709 C208.34,13.709 210.449,14.96 211.502,16.848 L208.291,18.711 C207.875,17.853 206.992,17.338 205.914,17.338 C204.32,17.338 203.142,18.49 203.142,20.182 C203.142,21.874 204.32,23.026 205.914,23.026 C206.992,23.026 207.899,22.512 208.291,21.653 L211.502,23.492 C210.449,25.404 208.365,26.655 205.961,26.655 C202.235,26.655 199.464,23.835 199.464,20.182" id="Fill-15"></path>
            <path d="M218.338,23.369 C219.344,23.369 220.202,22.977 220.692,22.438 L223.634,24.129 C222.433,25.797 220.619,26.655 218.29,26.655 C214.097,26.655 211.499,23.835 211.499,20.182 C211.499,16.529 214.146,13.709 218.02,13.709 C221.6,13.709 224.248,16.48 224.248,20.182 C224.248,20.697 224.199,21.188 224.1,21.653 L215.396,21.653 C215.863,22.928 216.99,23.369 218.338,23.369 M220.594,18.907 C220.202,17.485 219.098,16.97 217.996,16.97 C216.598,16.97 215.667,17.656 215.323,18.907 L220.594,18.907" id="Fill-16"></path>
            <path d="M30.094,17.781 C29.742,17.781 29.39,17.647 29.122,17.378 L14.622,2.878 C14.085,2.341 14.085,1.471 14.622,0.934 C15.159,0.397 16.029,0.397 16.566,0.934 L31.066,15.434 C31.603,15.971 31.603,16.841 31.066,17.378 C30.797,17.647 30.446,17.781 30.094,17.781" id="Fill-17"></path>
            <path d="M27.25,20.625 C26.898,20.625 26.546,20.49 26.278,20.222 L11.778,5.722 C11.241,5.185 11.241,4.314 11.778,3.777 C12.315,3.24 13.185,3.24 13.722,3.777 L28.222,18.277 C28.759,18.815 28.759,19.685 28.222,20.222 C27.954,20.49 27.602,20.625 27.25,20.625" id="Fill-19"></path>
            <path d="M24.406,23.468 C24.054,23.468 23.703,23.334 23.434,23.066 L8.934,8.565 C8.397,8.028 8.397,7.158 8.934,6.621 C9.471,6.084 10.341,6.084 10.878,6.621 L25.378,21.121 C25.916,21.658 25.916,22.528 25.378,23.066 C25.11,23.334 24.758,23.468 24.406,23.468" id="Fill-20"></path>
            <path d="M21.562,26.313 C21.21,26.313 20.859,26.179 20.59,25.91 L6.09,11.409 C5.553,10.872 5.553,10.002 6.09,9.465 C6.627,8.928 7.498,8.928 8.035,9.465 L22.535,23.965 C23.072,24.502 23.072,25.373 22.535,25.91 C22.266,26.179 21.915,26.313 21.562,26.313" id="Fill-21"></path>
            <path d="M18.719,29.156 C18.367,29.156 18.015,29.023 17.747,28.754 L3.247,14.253 C2.709,13.716 2.709,12.845 3.247,12.309 C3.784,11.771 4.654,11.771 5.191,12.309 L19.691,26.809 C20.228,27.346 20.228,28.217 19.691,28.754 C19.422,29.023 19.071,29.156 18.719,29.156" id="Fill-22"></path>
            <path d="M15.875,32 C15.523,32 15.171,31.866 14.903,31.598 L0.403,17.097 C-0.134,16.56 -0.134,15.689 0.403,15.152 C0.94,14.615 1.81,14.615 2.347,15.152 L16.847,29.652 C17.384,30.19 17.384,31.061 16.847,31.598 C16.579,31.866 16.227,32 15.875,32" id="Fill-24"></path>
        </g>
    </g>
</svg>